<?xml version="1.0" encoding="utf-8"?>
<!-- Generator: Adobe Illustrator 24.0.1, SVG Export Plug-In . SVG Version: 6.00 Build 0)  -->
<svg version="1.1" id="Layer_1" xmlns="http://www.w3.org/2000/svg" xmlns:xlink="http://www.w3.org/1999/xlink" x="0px" y="0px"
	 viewBox="0 0 400 400" style="enable-background:new 0 0 400 400;" xml:space="preserve">
<style type="text/css">
	.st0{fill:url(#SVGID_1_);}
	.st1{fill:#721C45;}
	.st2{fill:url(#SVGID_2_);}
	.st3{fill:url(#SVGID_3_);}
	.st4{fill:url(#SVGID_4_);}
	.st5{fill:url(#SVGID_5_);}
	.st6{fill:url(#SVGID_6_);}
	.st7{fill:url(#SVGID_7_);}
	.st8{fill:url(#SVGID_8_);}
	.st9{fill:url(#SVGID_9_);}
	.st10{fill:url(#SVGID_10_);}
	.st11{fill:url(#SVGID_11_);}
	.st12{fill:url(#SVGID_12_);}
	.st13{fill:url(#SVGID_13_);}
	.st14{fill:url(#SVGID_14_);}
	.st15{fill:url(#SVGID_15_);}
	.st16{fill:url(#SVGID_16_);}
	.st17{fill:url(#SVGID_17_);}
	.st18{fill:url(#SVGID_18_);}
	.st19{fill:url(#SVGID_19_);}
	.st20{fill:url(#SVGID_20_);}
	.st21{fill:url(#SVGID_21_);}
	.st22{fill:url(#SVGID_22_);}
	.st23{fill:url(#SVGID_23_);}
	.st24{fill:url(#SVGID_24_);}
	.st25{fill:url(#SVGID_25_);}
	.st26{fill:url(#SVGID_26_);}
	.st27{fill:url(#SVGID_27_);}
	.st28{fill:url(#SVGID_28_);}
	.st29{fill:url(#SVGID_29_);}
	.st30{fill:url(#SVGID_30_);}
	.st31{fill:url(#SVGID_31_);}
</style>
<g>
	<linearGradient id="SVGID_1_" gradientUnits="userSpaceOnUse" x1="197.5742" y1="194.7598" x2="202.2855" y2="12.5945">
		<stop  offset="0.2796" style="stop-color:#A82A86"/>
		<stop  offset="0.4155" style="stop-color:#B2378C"/>
		<stop  offset="0.6671" style="stop-color:#CB599D"/>
		<stop  offset="0.9677" style="stop-color:#EF8AB4"/>
	</linearGradient>
	<path class="st0" d="M242.73,101.69c0,30.45-19.13,90.94-42.73,90.94c-23.6,0-42.73-60.49-42.73-90.94
		C157.27,48.29,179.56,25,200,25C220.44,25,242.73,49.3,242.73,101.69z"/>
	<path class="st1" d="M204.34,142.69c0,3.88-1.94,11.58-4.34,11.58s-4.34-7.7-4.34-11.58c0-6.79,2.26-9.76,4.34-9.76
		C202.07,132.93,204.34,136.02,204.34,142.69z"/>
	<linearGradient id="SVGID_2_" gradientUnits="userSpaceOnUse" x1="198.2502" y1="196.4063" x2="201.3909" y2="380.1439">
		<stop  offset="0.2796" style="stop-color:#A82A86"/>
		<stop  offset="0.4155" style="stop-color:#B2378C"/>
		<stop  offset="0.6671" style="stop-color:#CB599D"/>
		<stop  offset="0.9677" style="stop-color:#EF8AB4"/>
	</linearGradient>
	<path class="st2" d="M157.27,298.3c0-30.45,19.13-90.94,42.73-90.94c23.6,0,42.72,60.49,42.72,90.94c0,53.4-22.28,76.7-42.72,76.7
		C179.56,375,157.27,350.7,157.27,298.3z"/>
	<linearGradient id="SVGID_3_" gradientUnits="userSpaceOnUse" x1="200.8535" y1="197.5934" x2="359.4679" y2="106.508">
		<stop  offset="0.2796" style="stop-color:#A82A86"/>
		<stop  offset="0.4155" style="stop-color:#B2378C"/>
		<stop  offset="0.6671" style="stop-color:#CB599D"/>
		<stop  offset="0.9677" style="stop-color:#EF8AB4"/>
	</linearGradient>
	<path class="st3" d="M306.31,186.31c-26.15,15.6-87.9,30.18-99.99,9.91c-12.1-20.26,30.04-67.69,56.19-83.29
		c45.85-27.37,77.28-20.17,87.75-2.62C360.75,127.86,351.3,159.45,306.31,186.31z"/>
	<linearGradient id="SVGID_4_" gradientUnits="userSpaceOnUse" x1="44.8156" y1="289.2753" x2="205" y2="201.331">
		<stop  offset="0.0323" style="stop-color:#EF8AB4"/>
		<stop  offset="0.3329" style="stop-color:#CB599D"/>
		<stop  offset="0.5845" style="stop-color:#B2378C"/>
		<stop  offset="0.7204" style="stop-color:#A82A86"/>
	</linearGradient>
	<path class="st4" d="M93.69,213.69c26.15-15.6,87.89-30.18,99.99-9.92c12.1,20.26-30.05,67.69-56.2,83.29
		c-45.85,27.37-77.28,20.17-87.75,2.62C39.26,272.14,48.7,240.54,93.69,213.69z"/>
	<linearGradient id="SVGID_5_" gradientUnits="userSpaceOnUse" x1="363.1481" y1="305.2395" x2="201.3925" y2="189.0268">
		<stop  offset="0.0323" style="stop-color:#EF8AB4"/>
		<stop  offset="0.3329" style="stop-color:#CB599D"/>
		<stop  offset="0.5845" style="stop-color:#B2378C"/>
		<stop  offset="0.7204" style="stop-color:#A82A86"/>
	</linearGradient>
	<path class="st5" d="M263.56,286.31c-26.33-15.29-69.03-62.21-57.19-82.62c11.85-20.41,73.77-6.57,100.1,8.72
		c46.19,26.81,55.14,57.78,44.87,75.46C341.08,305.55,308.87,312.62,263.56,286.31z"/>
	<linearGradient id="SVGID_6_" gradientUnits="userSpaceOnUse" x1="40.5739" y1="103.0138" x2="202.3271" y2="206.6615">
		<stop  offset="0.0323" style="stop-color:#EF8AB4"/>
		<stop  offset="0.3329" style="stop-color:#CB599D"/>
		<stop  offset="0.5845" style="stop-color:#B2378C"/>
		<stop  offset="0.7204" style="stop-color:#A82A86"/>
	</linearGradient>
	<path class="st6" d="M136.44,113.68c26.33,15.29,69.04,62.22,57.19,82.62c-11.85,20.41-73.77,6.58-100.1-8.71
		c-46.18-26.82-55.14-57.79-44.87-75.46C58.92,94.45,91.13,87.38,136.44,113.68z"/>
	
		<linearGradient id="SVGID_7_" gradientUnits="userSpaceOnUse" x1="222.0591" y1="-1669.5422" x2="225.9532" y2="-1820.1136" gradientTransform="matrix(0.9241 0.3821 -0.3821 0.9241 -643.3331 1653.2085)">
		<stop  offset="0.2796" style="stop-color:#A82A86"/>
		<stop  offset="0.4155" style="stop-color:#B2378C"/>
		<stop  offset="0.6671" style="stop-color:#CB599D"/>
		<stop  offset="0.9677" style="stop-color:#EF8AB4"/>
	</linearGradient>
	<path class="st7" d="M263.68,138.41c-9.62,23.25-43.34,63.41-61.36,55.96c-18.02-7.45-13.53-59.7-3.91-82.96
		c16.87-40.79,41.25-51.54,56.86-45.08C270.88,72.79,280.24,98.39,263.68,138.41z"/>
	
		<linearGradient id="SVGID_8_" gradientUnits="userSpaceOnUse" x1="222.613" y1="-1668.1835" x2="225.2091" y2="-1516.3127" gradientTransform="matrix(0.9241 0.3821 -0.3821 0.9241 -643.3331 1653.2085)">
		<stop  offset="0.2796" style="stop-color:#A82A86"/>
		<stop  offset="0.4155" style="stop-color:#B2378C"/>
		<stop  offset="0.6671" style="stop-color:#CB599D"/>
		<stop  offset="0.9677" style="stop-color:#EF8AB4"/>
	</linearGradient>
	<path class="st8" d="M136.31,261.59c9.62-23.25,43.34-63.42,61.36-55.97c18.03,7.46,13.53,59.7,3.91,82.96
		c-16.87,40.79-41.25,51.54-56.86,45.09C129.12,327.21,119.77,301.61,136.31,261.59z"/>
	
		<linearGradient id="SVGID_9_" gradientUnits="userSpaceOnUse" x1="224.7702" y1="-1667.1995" x2="355.8707" y2="-1742.4849" gradientTransform="matrix(0.9241 0.3821 -0.3821 0.9241 -643.3331 1653.2085)">
		<stop  offset="0.2796" style="stop-color:#A82A86"/>
		<stop  offset="0.4155" style="stop-color:#B2378C"/>
		<stop  offset="0.6671" style="stop-color:#CB599D"/>
		<stop  offset="0.9677" style="stop-color:#EF8AB4"/>
	</linearGradient>
	<path class="st9" d="M285.53,223.12c-24.9,3.66-76.67-4.71-79.5-24.01c-2.84-19.3,44.33-42.21,69.22-45.87
		c43.67-6.42,65.4,9,67.85,25.72C345.57,195.67,328.37,216.82,285.53,223.12z"/>
	
		<linearGradient id="SVGID_10_" gradientUnits="userSpaceOnUse" x1="95.791" y1="-1591.4205" x2="228.1973" y2="-1664.114" gradientTransform="matrix(0.9241 0.3821 -0.3821 0.9241 -643.3331 1653.2085)">
		<stop  offset="0.0323" style="stop-color:#EF8AB4"/>
		<stop  offset="0.3329" style="stop-color:#CB599D"/>
		<stop  offset="0.5845" style="stop-color:#B2378C"/>
		<stop  offset="0.7204" style="stop-color:#A82A86"/>
	</linearGradient>
	<path class="st10" d="M114.47,176.88c24.9-3.66,76.67,4.71,79.51,24c2.84,19.3-44.33,42.22-69.23,45.88
		c-43.67,6.42-65.39-9-67.86-25.72C54.44,204.33,71.63,183.18,114.47,176.88z"/>
	
		<linearGradient id="SVGID_11_" gradientUnits="userSpaceOnUse" x1="358.9131" y1="-1578.2246" x2="225.2138" y2="-1674.2803" gradientTransform="matrix(0.9241 0.3821 -0.3821 0.9241 -643.3331 1653.2085)">
		<stop  offset="0.0323" style="stop-color:#EF8AB4"/>
		<stop  offset="0.3329" style="stop-color:#CB599D"/>
		<stop  offset="0.5845" style="stop-color:#B2378C"/>
		<stop  offset="0.7204" style="stop-color:#A82A86"/>
	</linearGradient>
	<path class="st11" d="M221.29,286c-15.28-19.99-33.08-69.32-17.59-81.16c15.5-11.85,58.42,18.28,73.71,38.27
		c26.8,35.07,23.86,61.55,10.44,71.81C274.42,325.18,247.58,320.41,221.29,286z"/>
	
		<linearGradient id="SVGID_12_" gradientUnits="userSpaceOnUse" x1="92.2875" y1="-1745.3787" x2="225.9854" y2="-1659.7081" gradientTransform="matrix(0.9241 0.3821 -0.3821 0.9241 -643.3331 1653.2085)">
		<stop  offset="0.0323" style="stop-color:#EF8AB4"/>
		<stop  offset="0.3329" style="stop-color:#CB599D"/>
		<stop  offset="0.5845" style="stop-color:#B2378C"/>
		<stop  offset="0.7204" style="stop-color:#A82A86"/>
	</linearGradient>
	<path class="st12" d="M178.71,113.99c15.28,20,33.08,69.32,17.59,81.17c-15.5,11.85-58.42-18.28-73.7-38.27
		c-26.81-35.07-23.86-61.55-10.45-71.81C125.58,74.82,152.42,79.59,178.71,113.99z"/>
	
		<linearGradient id="SVGID_13_" gradientUnits="userSpaceOnUse" x1="-748.7339" y1="-3790.5176" x2="-745.8799" y2="-3900.8667" gradientTransform="matrix(0.6338 0.7735 -0.7735 0.6338 -2255.8955 3178.4304)">
		<stop  offset="0.2796" style="stop-color:#A82A86"/>
		<stop  offset="0.4155" style="stop-color:#B2378C"/>
		<stop  offset="0.6671" style="stop-color:#CB599D"/>
		<stop  offset="0.9677" style="stop-color:#EF8AB4"/>
	</linearGradient>
	<path class="st13" d="M262.46,182.28c-14.26,11.69-49.95,25.95-59.01,14.89c-9.06-11.06,11.94-43.24,26.21-54.93
		c25.02-20.5,44.49-19,52.34-9.42C289.84,142.39,287.01,162.16,262.46,182.28z"/>
	
		<linearGradient id="SVGID_14_" gradientUnits="userSpaceOnUse" x1="-748.3266" y1="-3789.5222" x2="-746.4241" y2="-3678.2231" gradientTransform="matrix(0.6338 0.7735 -0.7735 0.6338 -2255.8955 3178.4304)">
		<stop  offset="0.2796" style="stop-color:#A82A86"/>
		<stop  offset="0.4155" style="stop-color:#B2378C"/>
		<stop  offset="0.6671" style="stop-color:#CB599D"/>
		<stop  offset="0.9677" style="stop-color:#EF8AB4"/>
	</linearGradient>
	<path class="st14" d="M137.54,217.72c14.27-11.69,49.95-25.95,59.01-14.89c9.06,11.05-11.94,43.24-26.21,54.93
		c-25.02,20.5-44.49,19-52.34,9.43C110.15,257.61,112.99,237.84,137.54,217.72z"/>
	
		<linearGradient id="SVGID_15_" gradientUnits="userSpaceOnUse" x1="-746.7482" y1="-3788.8022" x2="-650.6694" y2="-3843.9761" gradientTransform="matrix(0.6338 0.7735 -0.7735 0.6338 -2255.8955 3178.4304)">
		<stop  offset="0.2796" style="stop-color:#A82A86"/>
		<stop  offset="0.4155" style="stop-color:#B2378C"/>
		<stop  offset="0.6671" style="stop-color:#CB599D"/>
		<stop  offset="0.9677" style="stop-color:#EF8AB4"/>
	</linearGradient>
	<path class="st15" d="M247.23,244.56c-17.35-6.26-47.89-29.6-43.03-43.05c4.85-13.45,43.25-11.91,60.6-5.65
		c30.43,10.98,39.12,28.46,34.92,40.11C295.51,247.62,277.08,255.33,247.23,244.56z"/>
	
		<linearGradient id="SVGID_16_" gradientUnits="userSpaceOnUse" x1="-841.2673" y1="-3733.269" x2="-744.2374" y2="-3786.5403" gradientTransform="matrix(0.6338 0.7735 -0.7735 0.6338 -2255.8955 3178.4304)">
		<stop  offset="0.0323" style="stop-color:#EF8AB4"/>
		<stop  offset="0.3329" style="stop-color:#CB599D"/>
		<stop  offset="0.5845" style="stop-color:#B2378C"/>
		<stop  offset="0.7204" style="stop-color:#A82A86"/>
	</linearGradient>
	<path class="st16" d="M152.77,155.44c17.35,6.26,47.88,29.6,43.03,43.04c-4.85,13.45-43.25,11.91-60.61,5.65
		c-30.43-10.98-39.11-28.46-34.91-40.11C104.49,152.38,122.92,144.67,152.77,155.44z"/>
	
		<linearGradient id="SVGID_17_" gradientUnits="userSpaceOnUse" x1="-648.4421" y1="-3723.5974" x2="-746.4232" y2="-3793.9915" gradientTransform="matrix(0.6338 0.7735 -0.7735 0.6338 -2255.8955 3178.4304)">
		<stop  offset="0.0323" style="stop-color:#EF8AB4"/>
		<stop  offset="0.3329" style="stop-color:#CB599D"/>
		<stop  offset="0.5845" style="stop-color:#B2378C"/>
		<stop  offset="0.7204" style="stop-color:#A82A86"/>
	</linearGradient>
	<path class="st17" d="M183.96,262.92c-2.94-18.21,2.65-56.23,16.76-58.51c14.11-2.28,31.4,32.04,34.35,50.25
		c5.17,31.93-5.91,48.02-18.13,49.99C204.71,306.62,189.03,294.25,183.96,262.92z"/>
	
		<linearGradient id="SVGID_18_" gradientUnits="userSpaceOnUse" x1="-843.8353" y1="-3846.0945" x2="-745.8572" y2="-3783.3125" gradientTransform="matrix(0.6338 0.7735 -0.7735 0.6338 -2255.8955 3178.4304)">
		<stop  offset="0.0323" style="stop-color:#EF8AB4"/>
		<stop  offset="0.3329" style="stop-color:#CB599D"/>
		<stop  offset="0.5845" style="stop-color:#B2378C"/>
		<stop  offset="0.7204" style="stop-color:#A82A86"/>
	</linearGradient>
	<path class="st18" d="M216.04,137.08c2.94,18.21-2.65,56.23-16.76,58.51c-14.11,2.29-31.4-32.04-34.35-50.24
		c-5.16-31.93,5.91-48.02,18.13-49.99C195.29,93.38,210.98,105.75,216.04,137.08z"/>
	
		<linearGradient id="SVGID_19_" gradientUnits="userSpaceOnUse" x1="112.1766" y1="-2133.2927" x2="114.3917" y2="-2218.9429" gradientTransform="matrix(0.8814 0.4724 -0.4724 0.8814 -906.4798 2024.5847)">
		<stop  offset="0.2796" style="stop-color:#A82A86"/>
		<stop  offset="0.4155" style="stop-color:#B2378C"/>
		<stop  offset="0.6671" style="stop-color:#CB599D"/>
		<stop  offset="0.9677" style="stop-color:#EF8AB4"/>
	</linearGradient>
	<path class="st19" d="M239.54,168.75c-6.76,12.62-28.13,33.44-37.91,28.2c-9.78-5.24-4.27-34.56,2.5-47.18
		c11.86-22.13,26.27-26.83,34.74-22.29C247.34,132.02,251.18,147.04,239.54,168.75z"/>
	
		<linearGradient id="SVGID_20_" gradientUnits="userSpaceOnUse" x1="112.4908" y1="-2132.5186" x2="113.9674" y2="-2046.1356" gradientTransform="matrix(0.8814 0.4724 -0.4724 0.8814 -906.4798 2024.5847)">
		<stop  offset="0.2796" style="stop-color:#A82A86"/>
		<stop  offset="0.4155" style="stop-color:#B2378C"/>
		<stop  offset="0.6671" style="stop-color:#CB599D"/>
		<stop  offset="0.9677" style="stop-color:#EF8AB4"/>
	</linearGradient>
	<path class="st20" d="M160.46,231.25c6.76-12.62,28.13-33.44,37.91-28.19c9.78,5.24,4.27,34.55-2.5,47.17
		c-11.87,22.13-26.27,26.83-34.74,22.29C152.66,267.98,148.82,252.96,160.46,231.25z"/>
	
		<linearGradient id="SVGID_21_" gradientUnits="userSpaceOnUse" x1="113.7137" y1="-2131.9595" x2="188.289" y2="-2174.7849" gradientTransform="matrix(0.8814 0.4724 -0.4724 0.8814 -906.4798 2024.5847)">
		<stop  offset="0.2796" style="stop-color:#A82A86"/>
		<stop  offset="0.4155" style="stop-color:#B2378C"/>
		<stop  offset="0.6671" style="stop-color:#CB599D"/>
		<stop  offset="0.9677" style="stop-color:#EF8AB4"/>
	</linearGradient>
	<path class="st21" d="M247.1,217.94c-14.3,0.66-43.13-7.02-43.64-18.1c-0.51-11.08,27.49-21.37,41.79-22.03
		c25.08-1.16,36.51,8.8,36.94,18.41C282.64,205.81,271.71,216.81,247.1,217.94z"/>
	
		<linearGradient id="SVGID_22_" gradientUnits="userSpaceOnUse" x1="40.3539" y1="-2088.8589" x2="115.6648" y2="-2130.2061" gradientTransform="matrix(0.8814 0.4724 -0.4724 0.8814 -906.4798 2024.5847)">
		<stop  offset="0.0323" style="stop-color:#EF8AB4"/>
		<stop  offset="0.3329" style="stop-color:#CB599D"/>
		<stop  offset="0.5845" style="stop-color:#B2378C"/>
		<stop  offset="0.7204" style="stop-color:#A82A86"/>
	</linearGradient>
	<path class="st22" d="M152.9,182.06c14.3-0.66,43.13,7.02,43.64,18.1c0.51,11.09-27.49,21.38-41.79,22.04
		c-25.08,1.16-36.5-8.81-36.94-18.4C117.37,194.19,128.29,183.2,152.9,182.06z"/>
	
		<linearGradient id="SVGID_23_" gradientUnits="userSpaceOnUse" x1="190.0189" y1="-2081.3501" x2="113.9658" y2="-2135.9902" gradientTransform="matrix(0.8814 0.4724 -0.4724 0.8814 -906.4798 2024.5847)">
		<stop  offset="0.0323" style="stop-color:#EF8AB4"/>
		<stop  offset="0.3329" style="stop-color:#CB599D"/>
		<stop  offset="0.5845" style="stop-color:#B2378C"/>
		<stop  offset="0.7204" style="stop-color:#A82A86"/>
	</linearGradient>
	<path class="st23" d="M207.17,249.88c-7.51-12.18-14.79-41.11-5.35-46.94c9.44-5.82,32.03,13.66,39.55,25.85
		c13.18,21.37,10.02,36.19,1.84,41.24C235.02,275.07,220.1,270.85,207.17,249.88z"/>
	
		<linearGradient id="SVGID_24_" gradientUnits="userSpaceOnUse" x1="38.358" y1="-2176.4319" x2="114.4103" y2="-2127.6992" gradientTransform="matrix(0.8814 0.4724 -0.4724 0.8814 -906.4798 2024.5847)">
		<stop  offset="0.0323" style="stop-color:#EF8AB4"/>
		<stop  offset="0.3329" style="stop-color:#CB599D"/>
		<stop  offset="0.5845" style="stop-color:#B2378C"/>
		<stop  offset="0.7204" style="stop-color:#A82A86"/>
	</linearGradient>
	<path class="st24" d="M192.83,150.11c7.51,12.18,14.79,41.12,5.35,46.94c-9.45,5.83-32.03-13.66-39.55-25.84
		c-13.18-21.37-10.02-36.19-1.84-41.24C164.99,124.93,179.9,129.15,192.83,150.11z"/>
	
		<linearGradient id="SVGID_25_" gradientUnits="userSpaceOnUse" x1="-1126.9757" y1="-4208.4683" x2="-1125.5576" y2="-4263.3013" gradientTransform="matrix(0.5382 0.8428 -0.8428 0.5382 -2739.4209 3413.3501)">
		<stop  offset="0.2796" style="stop-color:#A82A86"/>
		<stop  offset="0.4155" style="stop-color:#B2378C"/>
		<stop  offset="0.6671" style="stop-color:#CB599D"/>
		<stop  offset="0.9677" style="stop-color:#EF8AB4"/>
	</linearGradient>
	<path class="st25" d="M231.86,194.91c-7.72,4.93-26.17,9.88-29.99,3.89c-3.82-5.99,8.43-20.64,16.15-25.57
		c13.55-8.65,23.07-6.77,26.38-1.59C247.71,176.84,245.16,186.43,231.86,194.91z"/>
	
		<linearGradient id="SVGID_26_" gradientUnits="userSpaceOnUse" x1="-1126.7758" y1="-4207.9697" x2="-1125.8304" y2="-4152.665" gradientTransform="matrix(0.5382 0.8428 -0.8428 0.5382 -2739.4209 3413.3501)">
		<stop  offset="0.2796" style="stop-color:#A82A86"/>
		<stop  offset="0.4155" style="stop-color:#B2378C"/>
		<stop  offset="0.6671" style="stop-color:#CB599D"/>
		<stop  offset="0.9677" style="stop-color:#EF8AB4"/>
	</linearGradient>
	<path class="st26" d="M168.14,205.09c7.72-4.93,26.17-9.88,29.99-3.89c3.83,5.98-8.42,20.64-16.15,25.57
		c-13.55,8.65-23.07,6.77-26.38,1.59C152.29,223.17,154.85,213.57,168.14,205.09z"/>
	
		<linearGradient id="SVGID_27_" gradientUnits="userSpaceOnUse" x1="-1125.9918" y1="-4207.6128" x2="-1078.2457" y2="-4235.0313" gradientTransform="matrix(0.5382 0.8428 -0.8428 0.5382 -2739.4209 3413.3501)">
		<stop  offset="0.2796" style="stop-color:#A82A86"/>
		<stop  offset="0.4155" style="stop-color:#B2378C"/>
		<stop  offset="0.6671" style="stop-color:#CB599D"/>
		<stop  offset="0.9677" style="stop-color:#EF8AB4"/>
	</linearGradient>
	<path class="st27" d="M220.7,224.75c-8.2-4.11-21.89-17.41-18.71-23.76c3.18-6.35,22.04-3.34,30.24,0.77
		c14.37,7.2,17.63,16.34,14.88,21.84C244.34,229.09,234.8,231.82,220.7,224.75z"/>
	
		<linearGradient id="SVGID_28_" gradientUnits="userSpaceOnUse" x1="-1172.959" y1="-4180.0195" x2="-1124.7443" y2="-4206.4902" gradientTransform="matrix(0.5382 0.8428 -0.8428 0.5382 -2739.4209 3413.3501)">
		<stop  offset="0.0323" style="stop-color:#EF8AB4"/>
		<stop  offset="0.3329" style="stop-color:#CB599D"/>
		<stop  offset="0.5845" style="stop-color:#B2378C"/>
		<stop  offset="0.7204" style="stop-color:#A82A86"/>
	</linearGradient>
	<path class="st28" d="M179.31,175.25c8.19,4.11,21.89,17.41,18.71,23.76c-3.18,6.35-22.04,3.34-30.24-0.76
		c-14.37-7.2-17.63-16.33-14.88-21.84C155.66,170.91,165.21,168.18,179.31,175.25z"/>
	
		<linearGradient id="SVGID_29_" gradientUnits="userSpaceOnUse" x1="-1077.1375" y1="-4175.2124" x2="-1125.8302" y2="-4210.1953" gradientTransform="matrix(0.5382 0.8428 -0.8428 0.5382 -2739.4209 3413.3501)">
		<stop  offset="0.0323" style="stop-color:#EF8AB4"/>
		<stop  offset="0.3329" style="stop-color:#CB599D"/>
		<stop  offset="0.5845" style="stop-color:#B2378C"/>
		<stop  offset="0.7204" style="stop-color:#A82A86"/>
	</linearGradient>
	<path class="st29" d="M188.4,230.11c-0.38-9.16,4.6-27.59,11.69-27.89c7.1-0.3,13.62,17.65,14.01,26.81
		c0.67,16.06-5.73,23.35-11.87,23.61C196.08,252.89,189.06,245.86,188.4,230.11z"/>
	
		<linearGradient id="SVGID_30_" gradientUnits="userSpaceOnUse" x1="-1174.2389" y1="-4236.0864" x2="-1125.5463" y2="-4204.8853" gradientTransform="matrix(0.5382 0.8428 -0.8428 0.5382 -2739.4209 3413.3501)">
		<stop  offset="0.0323" style="stop-color:#EF8AB4"/>
		<stop  offset="0.3329" style="stop-color:#CB599D"/>
		<stop  offset="0.5845" style="stop-color:#B2378C"/>
		<stop  offset="0.7204" style="stop-color:#A82A86"/>
	</linearGradient>
	<path class="st30" d="M211.6,169.89c0.39,9.16-4.6,27.59-11.69,27.89c-7.1,0.3-13.62-17.65-14.01-26.8
		c-0.68-16.06,5.73-23.35,11.87-23.61C203.92,147.11,210.94,154.13,211.6,169.89z"/>
	
		<radialGradient id="SVGID_31_" cx="191.7965" cy="209.7296" r="10.6676" gradientTransform="matrix(0.7437 0 0 0.7437 59.2347 42.835)" gradientUnits="userSpaceOnUse">
		<stop  offset="0.0968" style="stop-color:#A82A86"/>
		<stop  offset="0.2796" style="stop-color:#A82A86"/>
		<stop  offset="0.6344" style="stop-color:#A82A86"/>
	</radialGradient>
	<path class="st31" d="M209.8,198.8c0,4.38-3.55,7.93-7.93,7.93c-4.38,0-7.93-3.55-7.93-7.93c0-4.38,3.55-7.93,7.93-7.93
		C206.25,190.87,209.8,194.42,209.8,198.8z"/>
</g>
</svg>
