<?xml version="1.0" encoding="utf-8"?>
<!-- Generator: Adobe Illustrator 24.0.1, SVG Export Plug-In . SVG Version: 6.00 Build 0)  -->
<svg version="1.1" id="Layer_1" xmlns="http://www.w3.org/2000/svg" xmlns:xlink="http://www.w3.org/1999/xlink" x="0px" y="0px"
	 viewBox="0 0 400 400" style="enable-background:new 0 0 400 400;" xml:space="preserve">
<style type="text/css">
	.st0{fill:url(#SVGID_1_);}
	.st1{fill:url(#SVGID_2_);}
	.st2{fill:url(#SVGID_3_);}
	.st3{fill:url(#SVGID_4_);}
	.st4{fill:url(#SVGID_5_);}
	.st5{fill:url(#SVGID_6_);}
	.st6{fill:url(#SVGID_7_);}
	.st7{fill:url(#SVGID_8_);}
	.st8{fill:url(#SVGID_9_);}
	.st9{fill:url(#SVGID_10_);}
	.st10{fill:url(#SVGID_11_);}
	.st11{fill:url(#SVGID_12_);}
	.st12{fill:url(#SVGID_13_);}
	.st13{fill:url(#SVGID_14_);}
	.st14{fill:url(#SVGID_15_);}
	.st15{fill:url(#SVGID_16_);}
	.st16{fill:url(#SVGID_17_);}
	.st17{fill:url(#SVGID_18_);}
	.st18{fill:url(#SVGID_19_);}
</style>
<g>
	
		<linearGradient id="SVGID_1_" gradientUnits="userSpaceOnUse" x1="463.2122" y1="-533.7709" x2="326.0701" y2="-385.1998" gradientTransform="matrix(0.9921 0.1252 -0.1252 0.9921 -169.8533 553.6968)">
		<stop  offset="0.0323" style="stop-color:#EE83B3"/>
		<stop  offset="0.7634" style="stop-color:#E8516E"/>
	</linearGradient>
	<path class="st0" d="M343.94,172.71c-23.24,12.49-129.72,43.72-142.26,27.57c-12.53-16.16,57.61-125.86,81.79-136.42
		c20.79-9.08,34.76-1.85,42.91,6.79c12.61,13.35-2.03,39.35-2.03,39.35s26.78-4.63,38.17,19.61
		C369.18,143.79,360.11,164.02,343.94,172.71z"/>
	
		<linearGradient id="SVGID_2_" gradientUnits="userSpaceOnUse" x1="-1599.1555" y1="-5217.9878" x2="-1736.292" y2="-5069.4229" gradientTransform="matrix(0.3308 0.9437 -0.9437 0.3308 -4018.6975 3521.3481)">
		<stop  offset="0.0323" style="stop-color:#EE83B3"/>
		<stop  offset="0.7634" style="stop-color:#E8516E"/>
	</linearGradient>
	<path class="st1" d="M289.85,315.28c-21.56-15.22-97.03-96.57-88.16-115c8.86-18.43,138.34-4.62,158.59,12.3
		c17.4,14.55,17.16,30.28,13.07,41.43c-6.33,17.24-36.11,15.74-36.11,15.74s16.09,21.9-0.51,42.9
		C327,324.96,304.84,325.86,289.85,315.28z"/>
	
		<linearGradient id="SVGID_3_" gradientUnits="userSpaceOnUse" x1="-6190.7847" y1="-5712.7686" x2="-6327.9219" y2="-5564.2026" gradientTransform="matrix(-0.607 0.7947 -0.7947 -0.607 -8071.7876 1845.6938)">
		<stop  offset="0.0323" style="stop-color:#EE83B3"/>
		<stop  offset="0.7634" style="stop-color:#E8516E"/>
	</linearGradient>
	<path class="st2" d="M153.99,337.11c0.88-26.37,27.42-134.12,47.69-136.84c20.27-2.71,79.83,113.08,76.81,139.29
		c-2.6,22.53-15.87,30.98-27.44,33.68c-17.88,4.18-32.99-21.53-32.99-21.53c0,0-9.46,25.48-36.14,23.13
		C166.3,373.48,153.38,355.46,153.99,337.11z"/>
	
		<linearGradient id="SVGID_4_" gradientUnits="userSpaceOnUse" x1="-9147.7461" y1="-2027.4557" x2="-9284.8828" y2="-1878.8909" gradientTransform="matrix(-0.9954 -0.0958 0.0958 -0.9954 -8861.041 -2571.5352)">
		<stop  offset="0.0323" style="stop-color:#EE83B3"/>
		<stop  offset="0.7634" style="stop-color:#E8516E"/>
	</linearGradient>
	<path class="st3" d="M60.3,232.05c22.86-13.18,128.37-47.54,141.38-31.77c13,15.78-53.86,127.51-77.72,138.78
		c-20.5,9.69-34.68,2.87-43.09-5.52c-13-12.97,0.86-39.39,0.86-39.39S55.1,299.58,43,275.69C35.92,261.71,44.4,241.21,60.3,232.05z"
		/>
	
		<linearGradient id="SVGID_5_" gradientUnits="userSpaceOnUse" x1="-2701.073" y1="3364.3999" x2="-2838.2085" y2="3512.9639" gradientTransform="matrix(0.5741 -0.8188 0.8188 0.5741 -1034.5509 -4134.9595)">
		<stop  offset="0.0323" style="stop-color:#EE83B3"/>
		<stop  offset="0.7634" style="stop-color:#E8516E"/>
	</linearGradient>
	<path class="st4" d="M243.73,61.61c0.2,26.39-21.91,135.13-42.05,138.67c-20.14,3.54-84.38-109.72-82.43-136.04
		c1.68-22.62,14.59-31.6,26.04-34.77c17.69-4.91,33.84,20.17,33.84,20.17s8.42-25.84,35.16-24.59
		C229.95,25.78,243.61,43.26,243.73,61.61z"/>
	
		<linearGradient id="SVGID_6_" gradientUnits="userSpaceOnUse" x1="-7486.6406" y1="2509.6604" x2="-7623.7705" y2="2658.2183" gradientTransform="matrix(-0.4215 -0.9069 0.9069 -0.4215 -5412.3398 -5599.8672)">
		<stop  offset="0.0323" style="stop-color:#EE83B3"/>
		<stop  offset="0.7634" style="stop-color:#E8516E"/>
	</linearGradient>
	<path class="st5" d="M102.69,94.45c22.95,13.04,106.01,86.62,98.99,105.83c-7.02,19.2-137.23,18.12-159.03,3.26
		c-18.74-12.78-20.04-28.45-17.07-39.95c4.61-17.78,34.4-19.2,34.4-19.2s-18.16-20.22-3.69-42.75
		C64.77,88.45,86.74,85.38,102.69,94.45z"/>
	<g>
		<g>
			<g>
				<linearGradient id="SVGID_7_" gradientUnits="userSpaceOnUse" x1="243.2106" y1="262.0786" x2="161.5107" y2="147.8957">
					<stop  offset="0" style="stop-color:#F39500"/>
					<stop  offset="0.3548" style="stop-color:#FBBD00"/>
					<stop  offset="0.8925" style="stop-color:#FFE268"/>
				</linearGradient>
				<rect x="199.38" y="139.97" class="st6" width="4.61" height="128.13"/>
			</g>
			<g>
				<linearGradient id="SVGID_8_" gradientUnits="userSpaceOnUse" x1="243.2094" y1="262.0759" x2="161.5125" y2="147.8972">
					<stop  offset="0" style="stop-color:#F39500"/>
					<stop  offset="0.3548" style="stop-color:#FBBD00"/>
					<stop  offset="0.8925" style="stop-color:#FFE268"/>
				</linearGradient>
				<rect x="137.62" y="201.73" class="st7" width="128.13" height="4.61"/>
			</g>
			<linearGradient id="SVGID_9_" gradientUnits="userSpaceOnUse" x1="273.5346" y1="240.3903" x2="191.8311" y2="126.2025">
				<stop  offset="0" style="stop-color:#F39500"/>
				<stop  offset="0.3548" style="stop-color:#FBBD00"/>
				<stop  offset="0.8925" style="stop-color:#FFE268"/>
			</linearGradient>
			<path class="st8" d="M211.72,139.97c0,5.54-4.49,10.03-10.03,10.03c-5.55,0-10.03-4.49-10.03-10.03
				c0-5.55,4.49-10.04,10.03-10.04C207.23,129.94,211.72,134.43,211.72,139.97z"/>
			<linearGradient id="SVGID_10_" gradientUnits="userSpaceOnUse" x1="214.1284" y1="282.8886" x2="132.4271" y2="168.7039">
				<stop  offset="0" style="stop-color:#F39500"/>
				<stop  offset="0.3548" style="stop-color:#FBBD00"/>
				<stop  offset="0.8925" style="stop-color:#FFE268"/>
			</linearGradient>
			<path class="st9" d="M211.72,265.49c0,5.55-4.49,10.04-10.03,10.04c-5.55,0-10.03-4.49-10.03-10.04
				c0-5.54,4.49-10.03,10.03-10.03C207.23,255.46,211.72,259.95,211.72,265.49z"/>
			<linearGradient id="SVGID_11_" gradientUnits="userSpaceOnUse" x1="285.3332" y1="231.9294" x2="203.6484" y2="117.7676">
				<stop  offset="0" style="stop-color:#F39500"/>
				<stop  offset="0.3548" style="stop-color:#FBBD00"/>
				<stop  offset="0.8925" style="stop-color:#FFE268"/>
			</linearGradient>
			<path class="st10" d="M264.44,212.77c-5.54,0-10.04-4.49-10.04-10.04c0-5.54,4.49-10.03,10.04-10.03
				c5.54,0,10.03,4.49,10.03,10.03C274.48,208.28,269.98,212.77,264.44,212.77z"/>
			<linearGradient id="SVGID_12_" gradientUnits="userSpaceOnUse" x1="202.3161" y1="291.3346" x2="120.6183" y2="177.1546">
				<stop  offset="0" style="stop-color:#F39500"/>
				<stop  offset="0.3548" style="stop-color:#FBBD00"/>
				<stop  offset="0.8925" style="stop-color:#FFE268"/>
			</linearGradient>
			<path class="st11" d="M138.92,212.77c-5.54,0-10.04-4.49-10.04-10.04c0-5.54,4.49-10.03,10.04-10.03
				c5.54,0,10.03,4.49,10.03,10.03C148.96,208.28,144.46,212.77,138.92,212.77z"/>
		</g>
		<g>
			<g>
				<linearGradient id="SVGID_13_" gradientUnits="userSpaceOnUse" x1="242.9084" y1="262.2875" x2="161.2156" y2="148.1146">
					<stop  offset="0" style="stop-color:#F39500"/>
					<stop  offset="0.3548" style="stop-color:#FBBD00"/>
					<stop  offset="0.8925" style="stop-color:#FFE268"/>
				</linearGradient>
				<polygon class="st12" points="162.66,244.61 159.8,241.76 239.09,162.47 241.94,165.32 				"/>
			</g>
			<g>
				<linearGradient id="SVGID_14_" gradientUnits="userSpaceOnUse" x1="242.9112" y1="262.2904" x2="161.2142" y2="148.1116">
					<stop  offset="0" style="stop-color:#F39500"/>
					<stop  offset="0.3548" style="stop-color:#FBBD00"/>
					<stop  offset="0.8925" style="stop-color:#FFE268"/>
				</linearGradient>
				<polygon class="st13" points="239.09,244.61 159.8,165.32 162.66,162.47 241.94,241.76 				"/>
			</g>
			<linearGradient id="SVGID_15_" gradientUnits="userSpaceOnUse" x1="287.8936" y1="230.1018" x2="206.1983" y2="115.9253">
				<stop  offset="0" style="stop-color:#F39500"/>
				<stop  offset="0.3548" style="stop-color:#FBBD00"/>
				<stop  offset="0.8925" style="stop-color:#FFE268"/>
			</linearGradient>
			<path class="st14" d="M246.73,170.1c-3.43,3.43-8.99,3.43-12.42,0c-3.43-3.43-3.43-8.99,0-12.41c3.43-3.44,9-3.44,12.43,0
				C250.16,161.11,250.16,166.67,246.73,170.1z"/>
			<linearGradient id="SVGID_16_" gradientUnits="userSpaceOnUse" x1="199.7625" y1="293.1686" x2="118.0615" y2="178.9842">
				<stop  offset="0" style="stop-color:#F39500"/>
				<stop  offset="0.3548" style="stop-color:#FBBD00"/>
				<stop  offset="0.8925" style="stop-color:#FFE268"/>
			</linearGradient>
			<path class="st15" d="M169.05,247.78c-3.43,3.43-8.99,3.43-12.41,0c-3.43-3.43-3.43-8.99,0-12.42c3.43-3.43,8.99-3.43,12.42,0
				C172.48,238.79,172.48,244.35,169.05,247.78z"/>
			<linearGradient id="SVGID_17_" gradientUnits="userSpaceOnUse" x1="251.1366" y1="256.4085" x2="169.435" y2="142.2233">
				<stop  offset="0" style="stop-color:#F39500"/>
				<stop  offset="0.3548" style="stop-color:#FBBD00"/>
				<stop  offset="0.8925" style="stop-color:#FFE268"/>
			</linearGradient>
			<path class="st16" d="M234.31,247.79c-3.43-3.44-3.43-9,0-12.43c3.43-3.43,8.99-3.43,12.43,0c3.42,3.43,3.42,8.99,0,12.42
				C243.3,251.21,237.74,251.21,234.31,247.79z"/>
			<linearGradient id="SVGID_18_" gradientUnits="userSpaceOnUse" x1="236.5074" y1="266.8442" x2="154.8235" y2="152.6837">
				<stop  offset="0" style="stop-color:#F39500"/>
				<stop  offset="0.3548" style="stop-color:#FBBD00"/>
				<stop  offset="0.8925" style="stop-color:#FFE268"/>
			</linearGradient>
			<path class="st17" d="M156.63,170.1c-3.43-3.43-3.43-8.99,0-12.42c3.42-3.43,8.99-3.43,12.41,0c3.43,3.43,3.43,8.99,0,12.42
				C165.62,173.53,160.06,173.53,156.63,170.1z"/>
		</g>
		<linearGradient id="SVGID_19_" gradientUnits="userSpaceOnUse" x1="244.985" y1="260.8009" x2="163.2932" y2="146.6293">
			<stop  offset="0" style="stop-color:#F39500"/>
			<stop  offset="0.3548" style="stop-color:#FBBD00"/>
			<stop  offset="0.8925" style="stop-color:#FFE268"/>
		</linearGradient>
		<path class="st18" d="M228.18,200.28c0,14.64-11.87,26.5-26.5,26.5c-14.64,0-26.51-11.87-26.51-26.5
			c0-14.64,11.87-26.5,26.51-26.5C216.32,173.78,228.18,185.64,228.18,200.28z"/>
	</g>
</g>
</svg>
