<?xml version="1.0" encoding="utf-8"?>
<!-- Generator: Adobe Illustrator 24.0.1, SVG Export Plug-In . SVG Version: 6.00 Build 0)  -->
<svg version="1.1" id="Layer_1" xmlns="http://www.w3.org/2000/svg" xmlns:xlink="http://www.w3.org/1999/xlink" x="0px" y="0px"
	 viewBox="0 0 400 400" style="enable-background:new 0 0 400 400;" xml:space="preserve">
<style type="text/css">
	.st0{fill:url(#SVGID_1_);}
	.st1{fill:url(#SVGID_2_);}
	.st2{fill:url(#SVGID_3_);}
	.st3{fill:url(#SVGID_4_);}
	.st4{fill:url(#SVGID_5_);}
	.st5{fill:url(#SVGID_6_);}
	.st6{fill:url(#SVGID_7_);}
	.st7{fill:url(#SVGID_8_);}
	.st8{fill:url(#SVGID_9_);}
	.st9{fill:url(#SVGID_10_);}
	.st10{fill:url(#SVGID_11_);}
	.st11{fill:url(#SVGID_12_);}
	.st12{fill:url(#SVGID_13_);}
	.st13{fill:url(#SVGID_14_);}
	.st14{fill:url(#SVGID_15_);}
	.st15{fill:url(#SVGID_16_);}
	.st16{fill:url(#SVGID_17_);}
	.st17{fill:url(#SVGID_18_);}
	.st18{fill:url(#SVGID_19_);}
	.st19{fill:url(#SVGID_20_);}
	.st20{fill:url(#SVGID_21_);}
</style>
<g>
	<linearGradient id="SVGID_1_" gradientUnits="userSpaceOnUse" x1="198.5471" y1="14.5166" x2="202.7355" y2="196.6859">
		<stop  offset="0.0323" style="stop-color:#EE83B3"/>
		<stop  offset="0.7634" style="stop-color:#E8516E"/>
	</linearGradient>
	<path class="st0" d="M229.54,78.02c0,21.05-13.22,111.01-29.54,111.01s-29.54-89.96-29.54-111.01C170.46,43.92,185.87,25,200,25
		C214.13,25,229.54,43.92,229.54,78.02z"/>
	<linearGradient id="SVGID_2_" gradientUnits="userSpaceOnUse" x1="198.6669" y1="379.9558" x2="202.8543" y2="198.8343">
		<stop  offset="0.0323" style="stop-color:#EE83B3"/>
		<stop  offset="0.7634" style="stop-color:#E8516E"/>
	</linearGradient>
	<path class="st1" d="M170.46,321.98c0-21.05,13.23-111.01,29.54-111.01s29.54,89.97,29.54,111.01c0,34.09-15.41,53.02-29.54,53.02
		C185.87,375,170.46,356.08,170.46,321.98z"/>
	<linearGradient id="SVGID_3_" gradientUnits="userSpaceOnUse" x1="210.9697" y1="199.999" x2="375.001" y2="199.999">
		<stop  offset="0.2366" style="stop-color:#E8516E"/>
		<stop  offset="0.9677" style="stop-color:#EE83B3"/>
	</linearGradient>
	<path class="st2" d="M321.98,229.54c-21.05,0-111.01-13.22-111.01-29.54c0-16.31,89.96-29.54,111.01-29.54
		c34.1,0,53.02,15.41,53.02,29.54C375,214.13,356.08,229.54,321.98,229.54z"/>
	<linearGradient id="SVGID_4_" gradientUnits="userSpaceOnUse" x1="24.999" y1="199.999" x2="189.0307" y2="199.999">
		<stop  offset="0.0323" style="stop-color:#EE83B3"/>
		<stop  offset="0.7634" style="stop-color:#E8516E"/>
	</linearGradient>
	<path class="st3" d="M78.02,170.46c21.05,0,111.01,13.23,111.01,29.54c0,16.31-89.96,29.54-111.01,29.54
		C43.92,229.54,25,214.13,25,200C25,185.87,43.92,170.46,78.02,170.46z"/>
	<linearGradient id="SVGID_5_" gradientUnits="userSpaceOnUse" x1="331.9211" y1="64.3021" x2="206.2829" y2="200.4106">
		<stop  offset="0.0323" style="stop-color:#EE83B3"/>
		<stop  offset="0.7634" style="stop-color:#E8516E"/>
	</linearGradient>
	<path class="st4" d="M307.14,134.63c-14.89,14.88-87.85,69.14-99.39,57.61c-11.53-11.54,42.73-84.5,57.61-99.39
		c24.11-24.11,48.38-26.59,58.38-16.6C333.73,86.25,331.25,110.52,307.14,134.63z"/>
	<linearGradient id="SVGID_6_" gradientUnits="userSpaceOnUse" x1="70.74" y1="267.71" x2="193.8375" y2="267.71">
		<stop  offset="0.0323" style="stop-color:#EE83B3"/>
		<stop  offset="0.7634" style="stop-color:#E8516E"/>
	</linearGradient>
	<path class="st5" d="M92.86,265.37c14.88-14.89,87.85-69.14,99.38-57.61c11.54,11.53-42.72,84.5-57.61,99.38
		c-24.11,24.11-48.38,26.59-58.38,16.6C66.26,313.75,68.75,289.48,92.86,265.37z"/>
	<linearGradient id="SVGID_7_" gradientUnits="userSpaceOnUse" x1="206.1593" y1="267.71" x2="329.2593" y2="267.71">
		<stop  offset="0.2366" style="stop-color:#E8516E"/>
		<stop  offset="0.9677" style="stop-color:#EE83B3"/>
	</linearGradient>
	<path class="st6" d="M265.37,307.14c-14.88-14.89-69.15-87.85-57.61-99.38c11.54-11.53,84.5,42.72,99.39,57.61
		c24.11,24.11,26.59,48.38,16.6,58.38C313.75,333.73,289.48,331.25,265.37,307.14z"/>
	<linearGradient id="SVGID_8_" gradientUnits="userSpaceOnUse" x1="70.7421" y1="132.2905" x2="193.8375" y2="132.2905">
		<stop  offset="0.0323" style="stop-color:#EE83B3"/>
		<stop  offset="0.7634" style="stop-color:#E8516E"/>
	</linearGradient>
	<path class="st7" d="M134.63,92.86c14.89,14.88,69.15,87.85,57.61,99.39c-11.53,11.53-84.5-42.73-99.38-57.61
		c-24.11-24.11-26.6-48.39-16.61-58.38C86.25,66.26,110.53,68.75,134.63,92.86z"/>
	<g>
		<g>
			<g>
				<linearGradient id="SVGID_9_" gradientUnits="userSpaceOnUse" x1="233.1314" y1="249.0475" x2="167.9569" y2="157.9603">
					<stop  offset="0" style="stop-color:#F39500"/>
					<stop  offset="0.3548" style="stop-color:#FBBD00"/>
					<stop  offset="0.8925" style="stop-color:#FFE268"/>
				</linearGradient>
				<rect x="198.16" y="151.64" class="st8" width="3.68" height="102.21"/>
			</g>
			<g>
				<linearGradient id="SVGID_10_" gradientUnits="userSpaceOnUse" x1="233.1272" y1="249.0425" x2="167.9565" y2="157.9607">
					<stop  offset="0" style="stop-color:#F39500"/>
					<stop  offset="0.3548" style="stop-color:#FBBD00"/>
					<stop  offset="0.8925" style="stop-color:#FFE268"/>
				</linearGradient>
				<rect x="148.89" y="200.91" class="st9" width="102.21" height="3.68"/>
			</g>
			<linearGradient id="SVGID_11_" gradientUnits="userSpaceOnUse" x1="257.3147" y1="231.7404" x2="192.1415" y2="140.655">
				<stop  offset="0" style="stop-color:#F39500"/>
				<stop  offset="0.3548" style="stop-color:#FBBD00"/>
				<stop  offset="0.8925" style="stop-color:#FFE268"/>
			</linearGradient>
			<path class="st10" d="M208,151.64c0,4.42-3.58,8-8,8c-4.43,0-8.01-3.58-8.01-8c0-4.42,3.58-8.01,8.01-8.01
				C204.42,143.63,208,147.22,208,151.64z"/>
			<linearGradient id="SVGID_12_" gradientUnits="userSpaceOnUse" x1="209.9284" y1="265.6454" x2="144.7537" y2="174.558">
				<stop  offset="0" style="stop-color:#F39500"/>
				<stop  offset="0.3548" style="stop-color:#FBBD00"/>
				<stop  offset="0.8925" style="stop-color:#FFE268"/>
			</linearGradient>
			<path class="st11" d="M208,251.77c0,4.42-3.58,8.01-8,8.01c-4.43,0-8.01-3.59-8.01-8.01c0-4.42,3.58-8,8.01-8
				C204.42,243.76,208,247.35,208,251.77z"/>
			<linearGradient id="SVGID_13_" gradientUnits="userSpaceOnUse" x1="266.7332" y1="224.9998" x2="201.5625" y2="133.9181">
				<stop  offset="0" style="stop-color:#F39500"/>
				<stop  offset="0.3548" style="stop-color:#FBBD00"/>
				<stop  offset="0.8925" style="stop-color:#FFE268"/>
			</linearGradient>
			<path class="st12" d="M250.07,209.71c-4.42,0-8.01-3.59-8.01-8.01c0-4.42,3.58-8,8.01-8c4.42,0,8.01,3.58,8.01,8
				C258.07,206.13,254.49,209.71,250.07,209.71z"/>
			<linearGradient id="SVGID_14_" gradientUnits="userSpaceOnUse" x1="200.5127" y1="272.3914" x2="135.3353" y2="181.3001">
				<stop  offset="0" style="stop-color:#F39500"/>
				<stop  offset="0.3548" style="stop-color:#FBBD00"/>
				<stop  offset="0.8925" style="stop-color:#FFE268"/>
			</linearGradient>
			<path class="st13" d="M149.93,209.71c-4.42,0-8.01-3.59-8.01-8.01c0-4.42,3.59-8,8.01-8c4.43,0,8.01,3.58,8.01,8
				C157.94,206.13,154.36,209.71,149.93,209.71z"/>
		</g>
		<g>
			<g>
				<linearGradient id="SVGID_15_" gradientUnits="userSpaceOnUse" x1="232.8852" y1="249.2097" x2="167.7228" y2="158.1395">
					<stop  offset="0" style="stop-color:#F39500"/>
					<stop  offset="0.3548" style="stop-color:#FBBD00"/>
					<stop  offset="0.8925" style="stop-color:#FFE268"/>
				</linearGradient>
				<polygon class="st14" points="168.87,235.11 166.59,232.84 229.85,169.59 232.12,171.86 				"/>
			</g>
			<g>
				<linearGradient id="SVGID_16_" gradientUnits="userSpaceOnUse" x1="232.8909" y1="249.2165" x2="167.7188" y2="158.1327">
					<stop  offset="0" style="stop-color:#F39500"/>
					<stop  offset="0.3548" style="stop-color:#FBBD00"/>
					<stop  offset="0.8925" style="stop-color:#FFE268"/>
				</linearGradient>
				<polygon class="st15" points="229.85,235.11 166.59,171.86 168.87,169.59 232.12,232.84 				"/>
			</g>
			<linearGradient id="SVGID_17_" gradientUnits="userSpaceOnUse" x1="268.7713" y1="223.5339" x2="203.6079" y2="132.4623">
				<stop  offset="0" style="stop-color:#F39500"/>
				<stop  offset="0.3548" style="stop-color:#FBBD00"/>
				<stop  offset="0.8925" style="stop-color:#FFE268"/>
			</linearGradient>
			<path class="st16" d="M235.94,175.68c-2.74,2.73-7.17,2.74-9.91,0c-2.74-2.74-2.74-7.17,0-9.9c2.74-2.74,7.18-2.74,9.91,0
				C238.67,168.5,238.67,172.94,235.94,175.68z"/>
			<linearGradient id="SVGID_18_" gradientUnits="userSpaceOnUse" x1="198.4673" y1="273.8445" x2="133.2947" y2="182.7599">
				<stop  offset="0" style="stop-color:#F39500"/>
				<stop  offset="0.3548" style="stop-color:#FBBD00"/>
				<stop  offset="0.8925" style="stop-color:#FFE268"/>
			</linearGradient>
			<path class="st17" d="M173.97,237.64c-2.73,2.73-7.17,2.74-9.9,0c-2.74-2.74-2.74-7.17-0.01-9.91c2.74-2.74,7.17-2.74,9.9,0
				C176.71,230.47,176.71,234.9,173.97,237.64z"/>
			<linearGradient id="SVGID_19_" gradientUnits="userSpaceOnUse" x1="239.4534" y1="244.5242" x2="174.2728" y2="153.4284">
				<stop  offset="0" style="stop-color:#F39500"/>
				<stop  offset="0.3548" style="stop-color:#FBBD00"/>
				<stop  offset="0.8925" style="stop-color:#FFE268"/>
			</linearGradient>
			<path class="st18" d="M226.03,237.64c-2.74-2.74-2.74-7.17,0-9.91c2.74-2.74,7.17-2.74,9.91,0c2.73,2.74,2.73,7.17,0,9.91
				C233.2,240.37,228.76,240.37,226.03,237.64z"/>
			<linearGradient id="SVGID_20_" gradientUnits="userSpaceOnUse" x1="227.7792" y1="252.8462" x2="162.6206" y2="161.7813">
				<stop  offset="0" style="stop-color:#F39500"/>
				<stop  offset="0.3548" style="stop-color:#FBBD00"/>
				<stop  offset="0.8925" style="stop-color:#FFE268"/>
			</linearGradient>
			<path class="st19" d="M164.06,175.67c-2.73-2.74-2.73-7.17,0.01-9.9c2.73-2.74,7.17-2.74,9.9,0c2.74,2.74,2.74,7.18,0,9.91
				C171.24,178.41,166.8,178.41,164.06,175.67z"/>
		</g>
		<linearGradient id="SVGID_21_" gradientUnits="userSpaceOnUse" x1="234.547" y1="248.0282" x2="169.3771" y2="156.9474">
			<stop  offset="0" style="stop-color:#F39500"/>
			<stop  offset="0.3548" style="stop-color:#FBBD00"/>
			<stop  offset="0.8925" style="stop-color:#FFE268"/>
		</linearGradient>
		<path class="st20" d="M221.14,199.74c0,11.68-9.46,21.14-21.14,21.14c-11.68,0-21.14-9.47-21.14-21.14
			c0-11.68,9.46-21.14,21.14-21.14C211.68,178.6,221.14,188.07,221.14,199.74z"/>
	</g>
</g>
</svg>
