<?xml version="1.0" encoding="utf-8"?>
<!-- Generator: Adobe Illustrator 24.0.1, SVG Export Plug-In . SVG Version: 6.00 Build 0)  -->
<svg version="1.1" id="Layer_1" xmlns="http://www.w3.org/2000/svg" xmlns:xlink="http://www.w3.org/1999/xlink" x="0px" y="0px"
	 viewBox="0 0 400 400" style="enable-background:new 0 0 400 400;" xml:space="preserve">
<style type="text/css">
	.st0{fill:url(#SVGID_1_);}
	.st1{fill:#F18D07;}
	.st2{fill:url(#SVGID_2_);}
	.st3{fill:url(#SVGID_3_);}
	.st4{fill:url(#SVGID_4_);}
	.st5{fill:url(#SVGID_5_);}
	.st6{fill:url(#SVGID_6_);}
	.st7{fill:url(#SVGID_7_);}
	.st8{fill:url(#SVGID_8_);}
	.st9{fill:url(#SVGID_9_);}
	.st10{fill:url(#SVGID_10_);}
	.st11{fill:url(#SVGID_11_);}
	.st12{fill:url(#SVGID_12_);}
	.st13{fill:url(#SVGID_13_);}
	.st14{fill:url(#SVGID_14_);}
	.st15{fill:url(#SVGID_15_);}
	.st16{fill:url(#SVGID_16_);}
	.st17{fill:url(#SVGID_17_);}
	.st18{fill:#FFFFFF;}
</style>
<g>
	<g>
		<linearGradient id="SVGID_1_" gradientUnits="userSpaceOnUse" x1="175.0955" y1="112.0385" x2="223.9271" y2="112.0385">
			<stop  offset="0.1075" style="stop-color:#FFE268"/>
			<stop  offset="0.3925" style="stop-color:#FBBD00"/>
			<stop  offset="0.8871" style="stop-color:#F29100"/>
		</linearGradient>
		<path class="st0" d="M223.93,62.18c0,18.54-5.87,137.35-24.42,137.35c-18.54,0-24.42-118.81-24.42-137.35
			c0-18.55,5.88-37.65,24.42-37.65C218.06,24.54,223.93,43.64,223.93,62.18z"/>
		<g>
			<polygon class="st1" points="196.8,199.54 199.51,46.19 202.22,199.54 			"/>
		</g>
	</g>
	<g>
		<linearGradient id="SVGID_2_" gradientUnits="userSpaceOnUse" x1="198.8875" y1="380.6767" x2="201.5287" y2="194.9151">
			<stop  offset="0.1075" style="stop-color:#FFE268"/>
			<stop  offset="0.3925" style="stop-color:#FBBD00"/>
			<stop  offset="0.8871" style="stop-color:#F29100"/>
		</linearGradient>
		<path class="st2" d="M175.1,336.89c0-18.55,5.88-137.36,24.42-137.36c18.55,0,24.42,118.81,24.42,137.36
			c0,18.54-5.87,37.64-24.42,37.64C180.97,374.54,175.1,355.44,175.1,336.89z"/>
		<g>
			<g>
				<polygon class="st1" points="202.22,199.54 199.51,352.89 196.8,199.54 				"/>
			</g>
		</g>
	</g>
	<g>
		<linearGradient id="SVGID_3_" gradientUnits="userSpaceOnUse" x1="199.5113" y1="199.5386" x2="374.5113" y2="199.5386">
			<stop  offset="0.1989" style="stop-color:#F29100"/>
			<stop  offset="0.6075" style="stop-color:#FBBD00"/>
			<stop  offset="0.8925" style="stop-color:#FFE268"/>
		</linearGradient>
		<path class="st3" d="M336.87,223.96c-18.55,0-137.36-5.87-137.36-24.42c0-18.55,118.81-24.42,137.36-24.42
			c18.54,0,37.64,5.87,37.64,24.42C374.51,218.08,355.41,223.96,336.87,223.96z"/>
		<g>
			<g>
				<polygon class="st1" points="199.51,196.83 352.86,199.54 199.51,202.24 				"/>
			</g>
		</g>
	</g>
	<g>
		<linearGradient id="SVGID_4_" gradientUnits="userSpaceOnUse" x1="24.5113" y1="199.5386" x2="199.5113" y2="199.5386">
			<stop  offset="0.1075" style="stop-color:#FFE268"/>
			<stop  offset="0.3925" style="stop-color:#FBBD00"/>
			<stop  offset="0.8871" style="stop-color:#F29100"/>
		</linearGradient>
		<path class="st4" d="M62.16,175.12c18.55,0,137.36,5.87,137.36,24.42c0,18.55-118.81,24.42-137.36,24.42
			c-18.54,0-37.64-5.87-37.64-24.42C24.51,180.99,43.62,175.12,62.16,175.12z"/>
		<g>
			<g>
				<polygon class="st1" points="199.51,202.24 46.16,199.54 199.51,196.83 				"/>
			</g>
		</g>
	</g>
	<g>
		<linearGradient id="SVGID_5_" gradientUnits="userSpaceOnUse" x1="329.5007" y1="69.1162" x2="196.563" y2="203.8146">
			<stop  offset="0.1075" style="stop-color:#FFE268"/>
			<stop  offset="0.3925" style="stop-color:#FBBD00"/>
			<stop  offset="0.8871" style="stop-color:#F29100"/>
		</linearGradient>
		<path class="st5" d="M313.9,119.68c-13.11,13.11-101.27,92.97-114.39,79.86c-13.11-13.11,66.75-101.28,79.86-114.39
			c13.11-13.11,30.77-22.46,43.88-9.35C336.37,88.91,327.01,106.57,313.9,119.68z"/>
		<g>
			<g>
				<polygon class="st1" points="197.6,197.63 307.95,91.1 201.42,201.45 				"/>
			</g>
		</g>
	</g>
	<g>
		<linearGradient id="SVGID_6_" gradientUnits="userSpaceOnUse" x1="69.4507" y1="263.8461" x2="200.961" y2="263.8461">
			<stop  offset="0.1075" style="stop-color:#FFE268"/>
			<stop  offset="0.3925" style="stop-color:#FBBD00"/>
			<stop  offset="0.8871" style="stop-color:#F29100"/>
		</linearGradient>
		<path class="st6" d="M85.12,279.4c13.11-13.11,101.28-92.97,114.39-79.86c13.12,13.11-66.74,101.28-79.85,114.39
			c-13.12,13.11-30.77,22.47-43.89,9.35C62.66,310.17,72.01,292.51,85.12,279.4z"/>
		<g>
			<g>
				<polygon class="st1" points="201.42,201.45 91.08,307.97 197.6,197.63 				"/>
			</g>
		</g>
	</g>
	<g>
		<linearGradient id="SVGID_7_" gradientUnits="userSpaceOnUse" x1="198.0627" y1="263.8461" x2="329.5762" y2="263.8461">
			<stop  offset="0.1129" style="stop-color:#F29100"/>
			<stop  offset="0.6075" style="stop-color:#FBBD00"/>
			<stop  offset="0.8925" style="stop-color:#FFE268"/>
		</linearGradient>
		<path class="st7" d="M279.38,313.93c-13.11-13.11-92.98-101.28-79.86-114.39c13.12-13.11,101.28,66.75,114.39,79.86
			c13.11,13.11,22.47,30.78,9.35,43.88C310.14,336.4,292.48,327.04,279.38,313.93z"/>
		<g>
			<g>
				<polygon class="st1" points="201.42,197.63 307.95,307.97 197.6,201.45 				"/>
			</g>
		</g>
	</g>
	<g>
		<linearGradient id="SVGID_8_" gradientUnits="userSpaceOnUse" x1="69.4507" y1="135.2322" x2="200.961" y2="135.2322">
			<stop  offset="0.1075" style="stop-color:#FFE268"/>
			<stop  offset="0.3925" style="stop-color:#FBBD00"/>
			<stop  offset="0.8871" style="stop-color:#F29100"/>
		</linearGradient>
		<path class="st8" d="M119.66,85.15c13.11,13.11,92.97,101.28,79.85,114.39c-13.11,13.11-101.27-66.74-114.39-79.86
			c-13.12-13.11-22.46-30.77-9.36-43.88C88.88,62.68,106.54,72.03,119.66,85.15z"/>
		<g>
			<g>
				<polygon class="st1" points="197.6,201.45 91.08,91.1 201.42,197.63 				"/>
			</g>
		</g>
	</g>
	<g>
		<linearGradient id="SVGID_9_" gradientUnits="userSpaceOnUse" x1="197.7672" y1="203.5221" x2="270.8389" y2="36.2492">
			<stop  offset="0.1129" style="stop-color:#F29100"/>
			<stop  offset="0.6075" style="stop-color:#FBBD00"/>
			<stop  offset="0.8925" style="stop-color:#FFE268"/>
		</linearGradient>
		<path class="st9" d="M276.87,83.44c-7.42,16.99-60.37,123.52-77.36,116.1c-16.99-7.42,25.18-118.65,32.6-135.64
			c7.42-17,20.46-32.14,37.45-24.72C286.55,46.59,284.3,66.45,276.87,83.44z"/>
		<g>
			<g>
				<polygon class="st1" points="197.03,198.45 260.9,59.01 201.99,200.62 				"/>
			</g>
		</g>
	</g>
	<g>
		<linearGradient id="SVGID_10_" gradientUnits="userSpaceOnUse" x1="116.553" y1="280.505" x2="203.5119" y2="280.505">
			<stop  offset="0.1075" style="stop-color:#FFE268"/>
			<stop  offset="0.3925" style="stop-color:#FBBD00"/>
			<stop  offset="0.8871" style="stop-color:#F29100"/>
		</linearGradient>
		<path class="st10" d="M122.16,315.64c7.42-17,60.36-123.52,77.35-116.1c16.99,7.42-25.18,118.65-32.6,135.65
			c-7.42,17-20.45,32.14-37.45,24.72C112.47,352.48,114.73,332.63,122.16,315.64z"/>
		<g>
			<g>
				<polygon class="st1" points="201.99,200.62 138.13,340.07 197.03,198.46 				"/>
			</g>
		</g>
	</g>
	<g>
		<linearGradient id="SVGID_11_" gradientUnits="userSpaceOnUse" x1="199.1412" y1="239.0173" x2="361.8172" y2="239.0173">
			<stop  offset="0.1129" style="stop-color:#F29100"/>
			<stop  offset="0.6075" style="stop-color:#FBBD00"/>
			<stop  offset="0.8925" style="stop-color:#FFE268"/>
		</linearGradient>
		<path class="st11" d="M315.61,276.9c-17-7.42-123.53-60.36-116.1-77.36c7.42-16.99,118.65,25.18,135.65,32.6
			c17,7.42,32.15,20.45,24.72,37.45C352.46,286.58,332.6,284.32,315.61,276.9z"/>
		<g>
			<g>
				<polygon class="st1" points="200.6,197.06 340.04,260.92 198.43,202.02 				"/>
			</g>
		</g>
	</g>
	<g>
		<linearGradient id="SVGID_12_" gradientUnits="userSpaceOnUse" x1="37.2074" y1="160.0588" x2="199.8814" y2="160.0588">
			<stop  offset="0.1075" style="stop-color:#FFE268"/>
			<stop  offset="0.3925" style="stop-color:#FBBD00"/>
			<stop  offset="0.8871" style="stop-color:#F29100"/>
		</linearGradient>
		<path class="st12" d="M83.41,122.18c17,7.42,123.52,60.37,116.1,77.36c-7.42,16.99-118.65-25.18-135.65-32.61
			c-16.99-7.42-32.14-20.45-24.72-37.44C46.57,112.5,66.42,114.76,83.41,122.18z"/>
		<g>
			<g>
				<polygon class="st1" points="198.43,202.02 58.98,138.16 200.6,197.06 				"/>
			</g>
		</g>
	</g>
	<g>
		<linearGradient id="SVGID_13_" gradientUnits="userSpaceOnUse" x1="374.7597" y1="129.1284" x2="203.9635" y2="202.2009">
			<stop  offset="0.1075" style="stop-color:#FFE268"/>
			<stop  offset="0.3925" style="stop-color:#FBBD00"/>
			<stop  offset="0.8871" style="stop-color:#F29100"/>
		</linearGradient>
		<path class="st13" d="M336.31,172.15c-17.26,6.77-130.03,44.66-136.79,27.39c-6.76-17.26,101.71-66.09,118.97-72.86
			c17.26-6.77,37.19-8.27,43.96,9C369.21,152.93,353.57,165.38,336.31,172.15z"/>
		<g>
			<g>
				<polygon class="st1" points="198.52,197.02 342.29,143.57 200.5,202.06 				"/>
			</g>
		</g>
	</g>
	<g>
		<linearGradient id="SVGID_14_" gradientUnits="userSpaceOnUse" x1="34.9697" y1="236.1064" x2="199.8149" y2="236.1064">
			<stop  offset="0.1075" style="stop-color:#FFE268"/>
			<stop  offset="0.3925" style="stop-color:#FBBD00"/>
			<stop  offset="0.8871" style="stop-color:#F29100"/>
		</linearGradient>
		<path class="st14" d="M62.72,226.93c17.26-6.77,130.03-44.66,136.79-27.39c6.77,17.26-101.7,66.1-118.97,72.86
			c-17.27,6.77-37.19,8.27-43.96-9C29.81,246.14,45.46,233.7,62.72,226.93z"/>
		<g>
			<g>
				<polygon class="st1" points="200.5,202.06 56.73,255.51 198.52,197.02 				"/>
			</g>
		</g>
	</g>
	<g>
		<linearGradient id="SVGID_15_" gradientUnits="userSpaceOnUse" x1="195.0459" y1="281.6577" x2="277.113" y2="281.6577">
			<stop  offset="0.1129" style="stop-color:#F29100"/>
			<stop  offset="0.6075" style="stop-color:#FBBD00"/>
			<stop  offset="0.8925" style="stop-color:#FFE268"/>
		</linearGradient>
		<path class="st15" d="M226.9,336.33c-6.77-17.26-44.66-130.03-27.39-136.79c17.26-6.77,66.1,101.71,72.86,118.97
			c6.76,17.27,8.27,37.19-9,43.96C246.12,369.23,233.67,353.6,226.9,336.33z"/>
		<g>
			<g>
				<polygon class="st1" points="202.03,198.55 255.48,342.31 196.99,200.53 				"/>
			</g>
		</g>
	</g>
	<g>
		<linearGradient id="SVGID_16_" gradientUnits="userSpaceOnUse" x1="121.9113" y1="117.4179" x2="203.9773" y2="117.4179">
			<stop  offset="0.1075" style="stop-color:#FFE268"/>
			<stop  offset="0.3925" style="stop-color:#FBBD00"/>
			<stop  offset="0.8871" style="stop-color:#F29100"/>
		</linearGradient>
		<path class="st16" d="M172.12,62.75c6.77,17.26,44.65,130.02,27.39,136.79c-17.26,6.77-66.09-101.71-72.86-118.97
			c-6.76-17.26-8.26-37.19,9-43.96C152.91,29.84,165.35,45.48,172.12,62.75z"/>
		<g>
			<g>
				<polygon class="st1" points="196.99,200.53 143.55,56.77 202.03,198.55 				"/>
			</g>
		</g>
	</g>
	<linearGradient id="SVGID_17_" gradientUnits="userSpaceOnUse" x1="149.1976" y1="203.1481" x2="249.8298" y2="203.1481">
		<stop  offset="0.1935" style="stop-color:#C26500"/>
		<stop  offset="0.8978" style="stop-color:#601700"/>
	</linearGradient>
	<path class="st17" d="M249.83,203.15c0,27.79-22.53,50.32-50.32,50.32c-27.79,0-50.31-22.53-50.31-50.32
		c0-27.79,22.53-50.31,50.31-50.31C227.3,152.83,249.83,175.36,249.83,203.15z"/>
	<g>
		<path class="st18" d="M174.26,214.65c-1.46,0-1.46,2.26,0,2.26C175.71,216.9,175.71,214.65,174.26,214.65z"/>
		<path class="st18" d="M183.28,223.15c-2.13,0-2.13,3.3,0,3.3C185.4,226.45,185.4,223.15,183.28,223.15z"/>
		<path class="st18" d="M186.89,203.73c-1.65,0-3.03,1.38-3.03,3.03c0,1.65,1.38,3.03,3.03,3.03c1.65,0,3.03-1.38,3.03-3.03
			C189.91,205.1,188.54,203.73,186.89,203.73z"/>
		<path class="st18" d="M173.58,187.48c-1.18-0.34-2.45,0.4-2.78,1.57c-0.26,0.98,0.26,2.35,1.3,2.69c0.34,0.37,0.79,0.64,1.35,0.6
			c0.19-0.02,0.39-0.04,0.58-0.07c0.16-0.07,0.32-0.14,0.48-0.21c0.48-0.39,0.54-0.42,0.16-0.09c0.69-0.29,1.1-1.25,1.1-1.95
			C175.77,188.71,174.76,187.81,173.58,187.48z"/>
		<path class="st18" d="M191.68,173.67c0.04,0.18,0.03-0.12,0.03-0.14c-0.01-1.67-2.2-2.79-3.44-1.52c-1.18,0.36-1.3,1.91-0.4,2.55
			c0.46,0.77,1.48,1.27,2.33,0.95c0.02-0.01,0.03-0.01,0.05-0.02C191.2,175.46,191.87,174.7,191.68,173.67z"/>
		<path class="st18" d="M200.42,186.59c-1.58,0-1.58,2.45,0,2.45C201.99,189.04,201.99,186.59,200.42,186.59z"/>
		<path class="st18" d="M190.44,184.46c0.08,0.39,0.17,0.84,0.49,1.1c0.29,0.24,0.62,0.24,0.92,0c0.33-0.26,0.41-0.71,0.5-1.1
			C192.69,182.87,190.09,182.87,190.44,184.46z"/>
		<g>
			<path class="st18" d="M205.83,203.84c-0.46,0.02-0.89,0.05-1.3,0.27c-0.42,0.23-0.61,0.75-0.5,1.21
				c-0.03-0.13-0.05-0.22-0.06-0.28c0.01,0.07,0.02,0.15,0.01,0.26c-0.01,0.26,0.09,0.52,0.18,0.76c0.28,0.75,1.23,0.74,1.51,0.01
				c0.05,0,0.1-0.01,0.15,0C207.27,206.14,207.26,203.75,205.83,203.84z"/>
			<path class="st18" d="M203.97,205.04C203.95,204.94,203.94,204.91,203.97,205.04L203.97,205.04z"/>
		</g>
		<path class="st18" d="M193.64,231.29c0.12,0.12-0.41-0.52-0.56-0.61c-0.72-0.42-1.68-0.17-2.1,0.55
			c-1.03,1.74,1.85,3.32,2.66,1.55c0.03-0.08,0.14-0.17,0.01-0.05C194.03,232.38,194.03,231.65,193.64,231.29z"/>
		<path class="st18" d="M221.18,230.9c-0.35-0.9-1.48-0.9-1.84,0c-0.14,0.36-0.04,0.75,0,1.12c0.14,1.18,1.7,1.18,1.84,0
			C221.22,231.65,221.32,231.25,221.18,230.9z"/>
		<g>
			<path class="st18" d="M203.12,216.4c-2.1,0-3.18,1.89-2.88,3.78c0.15,0.97,0.32,1.69,0.95,2.49c-0.3-0.38,0.34,0.46,0.45,0.56
				c0.4,0.37,0.93,0.62,1.48,0.62c0.83,0,1.54-0.54,1.99-1.21c0.03-0.08,0.65-1.19,0.65-1.18c0.12-0.42,0.18-0.85,0.24-1.28
				C206.31,218.29,205.23,216.4,203.12,216.4z"/>
			<path class="st18" d="M205.14,222.6c-0.01,0.02-0.02,0.03-0.03,0.04C205.1,222.66,205.11,222.65,205.14,222.6z"/>
		</g>
		<path class="st18" d="M204.93,240.72c-1.56,0-1.56,2.43,0,2.43C206.49,243.15,206.49,240.72,204.93,240.72z"/>
		<path class="st18" d="M184.11,240.47c-0.18,0.37-0.36,0.74-0.54,1.11c-0.31,0.65,0.31,1.28,0.96,0.96
			c0.37-0.18,0.75-0.36,1.12-0.54C187.36,241.18,184.93,238.75,184.11,240.47z"/>
		<path class="st18" d="M164.63,219.21c-0.38-0.07-0.77-0.17-1.16-0.18c-1.62-0.09-1.62,2.61,0,2.52c0.39-0.02,0.78-0.11,1.16-0.19
			C165.7,221.16,165.7,219.41,164.63,219.21z"/>
		<path class="st18" d="M158.92,189.54c-1.26,0-1.26,1.95,0,1.95C160.17,191.49,160.17,189.54,158.92,189.54z"/>
		<path class="st18" d="M171.02,206.9c-0.01-0.53-0.38-1.13-0.93-1.22c-0.28-0.05-0.4-0.05-0.67,0c-0.56,0.1-0.92,0.7-0.93,1.22
			l-0.01,0.76c-0.03,1.65,2.59,1.65,2.57,0L171.02,206.9z"/>
		<path class="st18" d="M176.35,175.8c-0.72-1.23-2.27-1.69-3.56-1.14c-0.08,0.02-0.15,0.04-0.23,0.08
			c-1.5,0.54-2.49,1.97-2.04,3.59c0.51,1.86,2.64,2.65,4.3,1.74c0.39-0.21,0.81-0.51,1.1-0.86
			C176.72,178.22,177.04,176.98,176.35,175.8z"/>
		<path class="st18" d="M215.75,177.9c0.1-1.53-0.83-1.79-1.81-1.44c-0.98-0.34-1.91-0.08-1.81,1.44c-0.31,0.54-0.3,1.11,0.28,1.52
			c0.6,1.36,2.45,1.36,3.06,0C216.06,179,216.07,178.44,215.75,177.9z"/>
		<path class="st18" d="M210.34,162.44c-1.31,0-1.31,2.03,0,2.03C211.65,164.47,211.65,162.44,210.34,162.44z"/>
		<path class="st18" d="M229.83,178.76c-1.11-0.81-2.79-0.22-2.07,1.3c0.14,0.3,0.42,0.37,0.69,0.33c0.02,0.03,0.05,0.05,0.07,0.08
			C229.41,181.6,231.2,179.76,229.83,178.76z"/>
		<path class="st18" d="M222.07,189.23c-1.66,0-1.66,2.57,0,2.57C223.72,191.8,223.72,189.23,222.07,189.23z"/>
		<path class="st18" d="M237.83,204.3c-0.57-0.09-1.18-0.28-1.75-0.09c-1.61,0.55-1.61,2.72,0,3.27c0.56,0.19,1.17,0.01,1.75-0.09
			C239.36,207.15,239.36,204.56,237.83,204.3z"/>
		<path class="st18" d="M224.42,199.27c-0.62-1.35-2.32-1.89-3.66-1.21c-0.59,0.2-0.98,0.67-1.1,1.21c0,0.02-0.01,0.04-0.02,0.07
			c-0.47,0.52-0.76,1.18-0.76,2c0,1.74,1.45,3.19,3.19,3.19s3.18-1.44,3.18-3.19C225.25,200.5,224.93,199.82,224.42,199.27z"/>
		<path class="st18" d="M230.18,219c-1.65,0-1.65,2.57,0,2.57C231.84,221.57,231.84,219,230.18,219z"/>
		<path class="st18" d="M233.79,210.29c-1.25,0-1.25,1.95,0,1.95C235.05,212.24,235.05,210.29,233.79,210.29z"/>
		<path class="st18" d="M224.12,212.06c-0.45-0.55-1.39-0.94-2.1-0.89c-1.25,0.1-2.5,0.81-2.79,2.13c0.03-0.13-0.37,2.02-0.07,0.65
			v0c0,0.07-0.02,0.14-0.01,0.21c-0.21,1.69,1.32,3.73,3.2,2.97c0.13-0.05,0.24-0.11,0.36-0.17c0.04-0.01,0.08-0.01,0.12-0.02
			C225.11,216.33,225.48,213.71,224.12,212.06z"/>
		<path class="st18" d="M225.6,232.01c0.04,0.47,0.09,0.87,0.29,1.3c0.23,0.52,1.12,0.52,1.36,0c0.2-0.43,0.25-0.83,0.29-1.3
			C227.64,230.76,225.51,230.76,225.6,232.01z"/>
		<path class="st18" d="M215.75,237.96c-1.63,0-1.63,2.53,0,2.53C217.38,240.5,217.38,237.96,215.75,237.96z"/>
		<path class="st18" d="M211.24,229.14c-1.38,0-1.38,2.14,0,2.14C212.62,231.28,212.62,229.14,211.24,229.14z"/>
		<path class="st18" d="M239.35,189.36c-0.18-0.32-0.43-0.62-0.7-0.88c-0.17-0.13-0.33-0.26-0.5-0.39c0.06,0.04,0.12,0.08,0.18,0.12
			c-0.31-0.31-0.67-0.52-1.09-0.63c-2.39-0.66-4.16,2.37-2.41,4.13c0.61,0.61,1.39,0.79,2.12,0.66c0.79,1.21,2.85,0.61,2.97-0.96
			C239.99,190.7,239.7,189.97,239.35,189.36z"/>
		<path class="st18" d="M204.54,172.55c-0.18-0.31-0.38-0.59-0.62-0.88c-0.36-0.45-1.25-0.45-1.61,0c-0.23,0.28-0.43,0.57-0.62,0.88
			c-0.66,1.08,0.19,2.48,1.42,2.48C204.36,175.03,205.2,173.62,204.54,172.55z"/>
		<path class="st18" d="M193.95,159.79c-1-1.33-2.7-2.56-4.36-1.42c-1.18,0.81-1.39,2.27-0.43,3.36c0.41,0.47,0.92,0.57,1.51,0.63
			c0.15-0.02,0.31-0.04,0.47-0.06c0.04,0.02,0.1,0.06,0.18,0.11C192.88,163.35,195.14,161.37,193.95,159.79z"/>
	</g>
</g>
</svg>
