<?xml version="1.0" encoding="utf-8"?>
<!-- Generator: Adobe Illustrator 24.0.1, SVG Export Plug-In . SVG Version: 6.00 Build 0)  -->
<svg version="1.1" id="Layer_1" xmlns="http://www.w3.org/2000/svg" xmlns:xlink="http://www.w3.org/1999/xlink" x="0px" y="0px"
	 viewBox="0 0 400 400" style="enable-background:new 0 0 400 400;" xml:space="preserve">
<style type="text/css">
	.st0{fill:url(#SVGID_1_);}
	.st1{fill:url(#SVGID_2_);}
	.st2{fill:url(#SVGID_3_);}
	.st3{fill:url(#SVGID_4_);}
	.st4{fill:url(#SVGID_5_);}
	.st5{fill:url(#SVGID_6_);}
	.st6{fill:url(#SVGID_7_);}
	.st7{fill:url(#SVGID_8_);}
	.st8{fill:url(#SVGID_9_);}
</style>
<g>
	<linearGradient id="SVGID_1_" gradientUnits="userSpaceOnUse" x1="201.1672" y1="16.7021" x2="198.0264" y2="200.4413">
		<stop  offset="0.0323" style="stop-color:#A0D9F7"/>
		<stop  offset="0.3256" style="stop-color:#569BD4"/>
		<stop  offset="0.8287" style="stop-color:#212A52"/>
	</linearGradient>
	<path class="st0" d="M229.81,81c1.89,21.43-9.94,111.68-30.29,111.68c-20.35,0-29.53-88.03-29.53-109.54
		c0-16.07,11.91-58.14,29.53-58.14C217.14,25,227.91,59.6,229.81,81z"/>
	<linearGradient id="SVGID_2_" gradientUnits="userSpaceOnUse" x1="201.1844" y1="386.4536" x2="198.0437" y2="198.0032">
		<stop  offset="0.0323" style="stop-color:#A0D9F7"/>
		<stop  offset="0.3256" style="stop-color:#569BD4"/>
		<stop  offset="0.8287" style="stop-color:#212A52"/>
	</linearGradient>
	<path class="st1" d="M170.19,318.99c-1.89-21.44,9.95-111.68,30.29-111.68c20.34,0,29.53,88.03,29.53,109.55
		c0,16.06-11.91,58.14-29.53,58.14C182.85,375,172.09,340.4,170.19,318.99z"/>
	<linearGradient id="SVGID_3_" gradientUnits="userSpaceOnUse" x1="207.3106" y1="199.9982" x2="375.0012" y2="199.9982">
		<stop  offset="0.1713" style="stop-color:#212A52"/>
		<stop  offset="0.6744" style="stop-color:#569BD4"/>
		<stop  offset="0.9677" style="stop-color:#A0D9F7"/>
	</linearGradient>
	<path class="st2" d="M318.99,229.8c-21.43,1.9-111.68-9.94-111.68-30.28c0-20.34,88.03-29.53,109.55-29.53
		c16.06,0,58.14,11.91,58.14,29.53C375,217.14,340.4,227.91,318.99,229.8z"/>
	<linearGradient id="SVGID_4_" gradientUnits="userSpaceOnUse" x1="24.9988" y1="199.9995" x2="192.6847" y2="199.9995">
		<stop  offset="0.0323" style="stop-color:#A0D9F7"/>
		<stop  offset="0.3256" style="stop-color:#569BD4"/>
		<stop  offset="0.8287" style="stop-color:#212A52"/>
	</linearGradient>
	<path class="st3" d="M81,170.19c21.44-1.9,111.68,9.94,111.68,30.28c0,20.35-88.03,29.53-109.55,29.53
		C67.07,230,25,218.1,25,200.47C25,182.85,59.6,172.09,81,170.19z"/>
	<linearGradient id="SVGID_5_" gradientUnits="userSpaceOnUse" x1="65.8906" y1="66.1951" x2="202.5172" y2="202.0367">
		<stop  offset="0.0323" style="stop-color:#A0D9F7"/>
		<stop  offset="0.3256" style="stop-color:#569BD4"/>
		<stop  offset="0.8287" style="stop-color:#212A52"/>
	</linearGradient>
	<path class="st4" d="M136.94,94.78c16.49,13.81,71.94,86,57.55,100.39c-14.38,14.39-83.12-41.37-98.34-56.58
		c-11.35-11.36-32.69-49.53-20.23-62C88.38,64.13,120.45,80.98,136.94,94.78z"/>
	<linearGradient id="SVGID_6_" gradientUnits="userSpaceOnUse" x1="336.4587" y1="339.7993" x2="206.1178" y2="201.6062">
		<stop  offset="0.0323" style="stop-color:#A0D9F7"/>
		<stop  offset="0.3256" style="stop-color:#569BD4"/>
		<stop  offset="0.8287" style="stop-color:#212A52"/>
	</linearGradient>
	<path class="st5" d="M263.06,305.22c-16.5-13.82-71.94-86-57.56-100.38c14.39-14.39,83.13,41.37,98.34,56.58
		c11.36,11.36,32.7,49.53,20.23,61.99C311.62,335.87,279.54,319.02,263.06,305.22z"/>
	<linearGradient id="SVGID_7_" gradientUnits="userSpaceOnUse" x1="204.3823" y1="195.1222" x2="327.6602" y2="72.6296">
		<stop  offset="0.1713" style="stop-color:#212A52"/>
		<stop  offset="0.6744" style="stop-color:#569BD4"/>
		<stop  offset="0.9677" style="stop-color:#A0D9F7"/>
	</linearGradient>
	<path class="st6" d="M305.21,136.93c-13.82,16.49-86,71.94-100.38,57.56c-14.38-14.39,41.37-83.13,56.58-98.34
		c11.36-11.36,49.53-32.69,61.99-20.23C335.86,88.38,319.01,120.46,305.21,136.93z"/>
	<linearGradient id="SVGID_8_" gradientUnits="userSpaceOnUse" x1="70.0843" y1="326.0425" x2="199.6441" y2="206.6907">
		<stop  offset="0.0323" style="stop-color:#A0D9F7"/>
		<stop  offset="0.3256" style="stop-color:#569BD4"/>
		<stop  offset="0.8287" style="stop-color:#212A52"/>
	</linearGradient>
	<path class="st7" d="M94.78,263.07c13.82-16.5,86-71.94,100.39-57.56c14.38,14.39-41.37,83.12-56.58,98.34
		c-11.36,11.36-49.53,32.7-61.99,20.24C64.13,311.62,80.98,279.54,94.78,263.07z"/>
	<linearGradient id="SVGID_9_" gradientUnits="userSpaceOnUse" x1="174.952" y1="200" x2="224.0828" y2="200">
		<stop  offset="0" style="stop-color:#F39500"/>
		<stop  offset="0.3548" style="stop-color:#FBBD00"/>
		<stop  offset="0.8925" style="stop-color:#FFE268"/>
	</linearGradient>
	<path class="st8" d="M224.08,200c0,13.57-11,24.57-24.56,24.57c-13.57,0-24.57-11-24.57-24.57c0-13.57,11-24.57,24.57-24.57
		C213.09,175.43,224.08,186.43,224.08,200z"/>
</g>
</svg>
